<svg xmlns="http://www.w3.org/2000/svg" fill="none" class="MuiBox-root css-d8vlf1" viewBox="0 0 1080 720"><path fill="#F3F4F8" fill-rule="evenodd" d="M553.133 23.86c107.921-7.28 228.337-56.475 311.91 12.194 86.385 70.978 88.653 200.273 82.545 311.91-5.722 104.577-38.638 207.769-114.908 279.547-74.239 69.868-177.782 97.754-279.547 91.68-95.8-5.718-175.935-59.855-248.058-123.169-79.028-69.376-169.887-143.015-174.817-248.058-5.056-107.73 64.789-206.881 150.388-272.487 76.276-58.46 176.603-45.149 272.487-51.617Z" clip-rule="evenodd"/><path fill="#0D44FB" stroke="#000" stroke-width=".788" d="M797.574 249.254H381.776c-23.769 0-41.393 22.06-36.144 45.242l45.702 201.853c3.824 16.886 18.83 28.875 36.144 28.875h324.393c17.314 0 32.32-11.989 36.144-28.875l45.703-201.853c5.248-23.182-12.375-45.242-36.144-45.242Z"/><rect width="529.074" height="54.406" x="325.926" y="227.176" fill="url(#a)" rx="6.308"/><rect width="39.424" height="147.447" x="565.626" y="116" fill="#919EAB" rx="6.308"/><circle cx="585.338" cy="239.004" r="10.25" fill="#fff"/><rect width="38.636" height="153.755" x="451.295" y="309.967" fill="#F3F4F8" rx="15.77"/><rect width="38.636" height="153.755" x="526.201" y="309.967" fill="#F3F4F8" rx="15.77"/><rect width="38.636" height="153.755" x="601.896" y="309.967" fill="#F3F4F8" rx="15.77"/><rect width="38.636" height="153.755" x="676.802" y="309.967" fill="#F3F4F8" rx="15.77"/><circle cx="303.849" cy="227.176" r="78.849" fill="url(#b)"/><path fill="#fff" d="M302.82 218.434c-2.893 0-5.483-.706-7.771-2.119-2.288-1.447-4.087-3.533-5.4-6.258-1.312-2.725-1.968-6.022-1.968-9.891 0-3.868.656-7.165 1.968-9.89 1.313-2.725 3.112-4.794 5.4-6.207 2.288-1.447 4.878-2.17 7.771-2.17 2.927 0 5.518.723 7.772 2.17 2.287 1.413 4.087 3.482 5.399 6.207 1.312 2.725 1.968 6.022 1.968 9.89 0 3.869-.656 7.166-1.968 9.891-1.312 2.725-3.112 4.811-5.399 6.258-2.254 1.413-4.845 2.119-7.772 2.119Zm0-6.913c1.38 0 2.574-.387 3.583-1.161 1.043-.774 1.851-2.002 2.422-3.684.606-1.682.909-3.852.909-6.51 0-2.657-.303-4.827-.909-6.509-.571-1.682-1.379-2.91-2.422-3.684-1.009-.774-2.203-1.161-3.583-1.161-1.345 0-2.54.387-3.583 1.161-1.009.774-1.816 2.002-2.422 3.684-.572 1.682-.858 3.852-.858 6.509 0 2.658.286 4.828.858 6.51.606 1.682 1.413 2.91 2.422 3.684 1.043.774 2.238 1.161 3.583 1.161ZM258.104 263.388v-26.493h6.131v26.493h-6.131Zm17.906 0v-21.497h-8.478v-4.996h23.087v4.996h-8.477v21.497h-6.132Zm23.548-15.82h12.754v4.769h-12.754v-4.769Zm.454 10.9h14.42v4.92h-20.514v-26.493h20.021v4.92h-13.927v16.653Zm19.298 4.92v-26.493h5.072l11.278 18.696h-2.687l11.089-18.696h5.034l.075 26.493h-5.752l-.038-17.675h1.06l-8.857 14.874h-2.763l-9.045-14.874h1.287v17.675h-5.753Z"/><defs><linearGradient id="a" x1="325.926" x2="855" y1="254.379" y2="254.379" gradientUnits="userSpaceOnUse"><stop stop-color="#BBD2C5"/><stop stop-color="#292E49"/><stop offset=".5" stop-color="#536976"/></linearGradient><linearGradient id="b" x1="225" x2="382.697" y1="227.176" y2="227.176" gradientUnits="userSpaceOnUse"><stop stop-color="#E65C00"/><stop offset="1" stop-color="#F9D423"/></linearGradient></defs></svg>