<svg xmlns="http://www.w3.org/2000/svg" class="MuiBox-root css-10x59zd" version="1.0" viewBox="0 0 270 279"><g fill="#212B36"><path d="M130.6 14C83.5 20 43.2 52.7 27.2 98.2c-12.3 34.6-8.4 73.9 10.3 105.8C50 225.2 67.7 241.8 90 253c27.9 14 57.6 17.2 87.8 9.6 23.5-6 43.7-17.8 60.3-35.3 10.3-10.8 23-29.9 21.2-31.7-.4-.3-1.9-.6-3.4-.6s-5.6-.9-9.1-2c-6-1.9-6.4-1.9-7.6-.3-.7 1-3.9 5.4-7.1 9.8-38.3 52.7-114.7 58.3-160.7 11.8-27.2-27.5-37.2-68.4-25.9-106 9.8-32.3 36.1-59.3 68-69.6 19.7-6.4 40.4-7 60.9-1.7 9.2 2.3 23.8 9 32.7 15 8.7 5.8 21.3 18.8 27.8 28.5 3 4.4 5.9 7.9 6.5 7.8 2.1-.5 18.1-4.8 18.5-5 .2-.1-.9-2.4-2.4-5-19.1-33.1-49.6-55.2-86.2-62.8-9.2-1.9-31.1-2.7-40.7-1.5z"/><path fill="#007DFC" d="M131.7 56.5c-66.4 12.6-92.3 92.7-45.8 141.9 21.1 22.2 53.6 31.1 83.6 22.9 20.8-5.7 40-20.4 50.5-38.8l2.3-4.1-4.6-6.2c-7.2-9.8-9.2-17-9.2-33.2 0-15.6 1.4-20.4 9.2-31.7l4.4-6.5-3.3-5.6c-4.6-7.7-16.8-20.4-24.9-25.8-7.7-5.1-18.6-9.8-27.4-12-9.2-2.2-25.7-2.6-34.8-.9zm32.8 29.2c8.3 2.1 18.2 7.5 23.8 13 2.6 2.5 4.7 4.9 4.7 5.2 0 .7-11.9 11.6-16.7 15.4-2.3 1.9-2.4 1.9-6.3-1.7-7.2-6.5-11.4-8.1-21.5-8.1-7.4 0-9.8.4-13.8 2.4-10.4 5.1-16.1 14.6-16.1 27.1-.1 8.9 2.1 16 6.5 21.3 10.6 12.9 31.9 13.5 45.3 1.2l3.8-3.5 9.4 8.7c5.2 4.7 9.4 8.9 9.4 9.4 0 1.7-11.6 11.1-17.3 13.9-11.8 5.7-29.5 7.6-44 4.5-24.8-5.2-42.4-25.2-44.4-50.3-2.7-35.6 26.1-63 63.7-60.5 4.1.2 10.2 1.1 13.5 2z"/><path d="M257.5 110.8c-7.7 3.3-7.7 3.3-6.6 8.3 1.9 8 2.4 23.9 1.1 33.4-.7 4.9-1.3 9.9-1.4 10.9-.1 2.6 7.5 6.4 13.9 6.8l4.9.3 1.4-5.5c1.9-7.5 2.2-39 .4-48.8l-1.4-7.2-4.1.1c-2.3 0-6 .8-8.2 1.7z"/></g></svg>